<?xml version="1.0" encoding="utf-8"?>
<!-- Generator: Adobe Illustrator 22.1.0, SVG Export Plug-In . SVG Version: 6.00 Build 0)  -->
<svg version="1.1" id="Layer_1" xmlns="http://www.w3.org/2000/svg" xmlns:xlink="http://www.w3.org/1999/xlink" x="0px" y="0px"
	 viewBox="0 0 915.4 915.4" style="enable-background:new 0 0 915.4 915.4;" xml:space="preserve">
<style type="text/css">
	.st0{fill:#6D264A;stroke:#C49216;stroke-width:0.25;stroke-miterlimit:10;}
	.st1{opacity:8.000000e-02;fill:#FFFFFF;stroke:#FFFFFF;stroke-miterlimit:10;}
	.st2{fill:#C28B54;}
	.st3{fill:none;}
	.st4{fill:#FFFFFF;}
	.st5{font-family:'Hursheys';}
	.st6{font-size:167px;}
	.st7{fill:#973AA7;}
	.st8{fill:#6D264A;}
</style>
<path class="st0" d="M849.6,915.4H65.7C29.4,915.4,0,885.9,0,849.6V65.8C0,29.4,29.4,0,65.7,0h783.9c36.3,0,65.8,29.4,65.8,65.8
	v783.9C915.4,885.9,885.9,915.4,849.6,915.4z"/>
<ellipse class="st1" cx="457.5" cy="664" rx="363.9" ry="28.4"/>
<path class="st2" d="M747.1,664H168c-34.4,0-62.3-27.9-62.3-62.3v-27.8h703.8v27.8C809.5,636.1,781.5,664,747.1,664z"/>
<rect x="97" y="384.5" class="st3" width="713.5" height="163.5"/>
<text transform="matrix(1 0 0 1 98.8558 534.1699)" class="st4 st5 st6">CONNECT-EAT</text>
<path class="st2" d="M809.5,359.4H105.6v0c0-79.2,64.2-143.4,143.4-143.4h417.1C745.3,216,809.5,280.2,809.5,359.4L809.5,359.4z"/>
<g>
	<g>
		<path class="st7" d="M1480.1,386.7"/>
		<g>
			<path class="st8" d="M1480.1,392.7c7.7,0,7.7-12,0-12C1472.4,380.7,1472.3,392.7,1480.1,392.7L1480.1,392.7z"/>
		</g>
	</g>
	<g>
		<path class="st7" d="M1510.1,386.7"/>
		<g>
			<path class="st8" d="M1510.1,392.7c7.7,0,7.7-12,0-12C1502.4,380.7,1502.3,392.7,1510.1,392.7L1510.1,392.7z"/>
		</g>
	</g>
	<g>
		<path class="st7" d="M1540.1,386.7"/>
		<g>
			<path class="st8" d="M1540.1,392.7c7.7,0,7.7-12,0-12C1532.4,380.7,1532.3,392.7,1540.1,392.7L1540.1,392.7z"/>
		</g>
	</g>
	<g>
		<path class="st7" d="M1570.1,386.7"/>
		<g>
			<path class="st8" d="M1570.1,392.7c7.7,0,7.7-12,0-12C1562.4,380.7,1562.3,392.7,1570.1,392.7L1570.1,392.7z"/>
		</g>
	</g>
	<g>
		<path class="st7" d="M1600.1,386.7"/>
		<g>
			<path class="st8" d="M1600.1,392.7c7.7,0,7.7-12,0-12C1592.4,380.7,1592.3,392.7,1600.1,392.7L1600.1,392.7z"/>
		</g>
	</g>
	<g>
		<path class="st7" d="M1630.1,386.7"/>
		<g>
			<path class="st8" d="M1630.1,392.7c7.7,0,7.7-12,0-12C1622.4,380.7,1622.3,392.7,1630.1,392.7L1630.1,392.7z"/>
		</g>
	</g>
	<g>
		<path class="st7" d="M1660.1,386.7"/>
		<g>
			<path class="st8" d="M1660.1,392.7c7.7,0,7.7-12,0-12C1652.4,380.7,1652.3,392.7,1660.1,392.7L1660.1,392.7z"/>
		</g>
	</g>
	<g>
		<path class="st7" d="M1690.1,386.7"/>
		<g>
			<path class="st8" d="M1690.1,392.7c7.7,0,7.7-12,0-12C1682.4,380.7,1682.3,392.7,1690.1,392.7L1690.1,392.7z"/>
		</g>
	</g>
	<g>
		<path class="st7" d="M1720.1,386.7"/>
		<g>
			<path class="st8" d="M1720.1,392.7c7.7,0,7.7-12,0-12C1712.4,380.7,1712.3,392.7,1720.1,392.7L1720.1,392.7z"/>
		</g>
	</g>
	<g>
		<path class="st7" d="M1750.1,386.7"/>
		<g>
			<path class="st8" d="M1750.1,392.7c7.7,0,7.7-12,0-12C1742.4,380.7,1742.3,392.7,1750.1,392.7L1750.1,392.7z"/>
		</g>
	</g>
	<g>
		<path class="st7" d="M1780.1,386.7"/>
		<g>
			<path class="st8" d="M1780.1,392.7c7.7,0,7.7-12,0-12C1772.4,380.7,1772.3,392.7,1780.1,392.7L1780.1,392.7z"/>
		</g>
	</g>
	<g>
		<path class="st7" d="M1810.1,386.7"/>
		<g>
			<path class="st8" d="M1810.1,392.7c7.7,0,7.7-12,0-12C1802.4,380.7,1802.3,392.7,1810.1,392.7L1810.1,392.7z"/>
		</g>
	</g>
	<g>
		<path class="st7" d="M1840.1,386.7"/>
		<g>
			<path class="st8" d="M1840.1,392.7c7.7,0,7.7-12,0-12C1832.4,380.7,1832.3,392.7,1840.1,392.7L1840.1,392.7z"/>
		</g>
	</g>
	<g>
		<path class="st7" d="M1870.1,386.7"/>
		<g>
			<path class="st8" d="M1870.1,392.7c7.7,0,7.7-12,0-12C1862.4,380.7,1862.3,392.7,1870.1,392.7L1870.1,392.7z"/>
		</g>
	</g>
	<g>
		<path class="st7" d="M1900.1,386.7"/>
		<g>
			<path class="st8" d="M1900.1,392.7c7.7,0,7.7-12,0-12C1892.4,380.7,1892.3,392.7,1900.1,392.7L1900.1,392.7z"/>
		</g>
	</g>
	<g>
		<path class="st7" d="M1930.1,386.7"/>
		<g>
			<path class="st8" d="M1930.1,392.7c7.7,0,7.7-12,0-12C1922.4,380.7,1922.3,392.7,1930.1,392.7L1930.1,392.7z"/>
		</g>
	</g>
	<g>
		<path class="st7" d="M1960.1,386.7"/>
		<g>
			<path class="st8" d="M1960.1,392.7c7.7,0,7.7-12,0-12C1952.4,380.7,1952.3,392.7,1960.1,392.7L1960.1,392.7z"/>
		</g>
	</g>
	<g>
		<path class="st7" d="M1525.5,359.4"/>
		<g>
			<path class="st8" d="M1525.5,365.4c7.7,0,7.7-12,0-12C1517.7,353.4,1517.7,365.4,1525.5,365.4L1525.5,365.4z"/>
		</g>
	</g>
	<g>
		<path class="st7" d="M1555.5,359.4"/>
		<g>
			<path class="st8" d="M1555.5,365.4c7.7,0,7.7-12,0-12C1547.7,353.4,1547.7,365.4,1555.5,365.4L1555.5,365.4z"/>
		</g>
	</g>
	<g>
		<path class="st7" d="M1585.5,359.4"/>
		<g>
			<path class="st8" d="M1585.5,365.4c7.7,0,7.7-12,0-12C1577.7,353.4,1577.7,365.4,1585.5,365.4L1585.5,365.4z"/>
		</g>
	</g>
	<g>
		<path class="st7" d="M1615.5,359.4"/>
		<g>
			<path class="st8" d="M1615.5,365.4c7.7,0,7.7-12,0-12C1607.7,353.4,1607.7,365.4,1615.5,365.4L1615.5,365.4z"/>
		</g>
	</g>
	<g>
		<path class="st7" d="M1645.5,359.4"/>
		<g>
			<path class="st8" d="M1645.5,365.4c7.7,0,7.7-12,0-12C1637.7,353.4,1637.7,365.4,1645.5,365.4L1645.5,365.4z"/>
		</g>
	</g>
	<g>
		<path class="st7" d="M1675.5,359.4"/>
		<g>
			<path class="st8" d="M1675.5,365.4c7.7,0,7.7-12,0-12C1667.7,353.4,1667.7,365.4,1675.5,365.4L1675.5,365.4z"/>
		</g>
	</g>
	<g>
		<path class="st7" d="M1705.5,359.4"/>
		<g>
			<path class="st8" d="M1705.5,365.4c7.7,0,7.7-12,0-12C1697.7,353.4,1697.7,365.4,1705.5,365.4L1705.5,365.4z"/>
		</g>
	</g>
	<g>
		<path class="st7" d="M1735.5,359.4"/>
		<g>
			<path class="st8" d="M1735.5,365.4c7.7,0,7.7-12,0-12C1727.7,353.4,1727.7,365.4,1735.5,365.4L1735.5,365.4z"/>
		</g>
	</g>
	<g>
		<path class="st7" d="M1765.5,359.4"/>
		<g>
			<path class="st8" d="M1765.5,365.4c7.7,0,7.7-12,0-12C1757.7,353.4,1757.7,365.4,1765.5,365.4L1765.5,365.4z"/>
		</g>
	</g>
	<g>
		<path class="st7" d="M1795.5,359.4"/>
		<g>
			<path class="st8" d="M1795.5,365.4c7.7,0,7.7-12,0-12C1787.7,353.4,1787.7,365.4,1795.5,365.4L1795.5,365.4z"/>
		</g>
	</g>
	<g>
		<path class="st7" d="M1825.5,359.4"/>
		<g>
			<path class="st8" d="M1825.5,365.4c7.7,0,7.7-12,0-12C1817.7,353.4,1817.7,365.4,1825.5,365.4L1825.5,365.4z"/>
		</g>
	</g>
	<g>
		<path class="st7" d="M1855.5,359.4"/>
		<g>
			<path class="st8" d="M1855.5,365.4c7.7,0,7.7-12,0-12C1847.7,353.4,1847.7,365.4,1855.5,365.4L1855.5,365.4z"/>
		</g>
	</g>
	<g>
		<path class="st7" d="M1885.5,359.4"/>
		<g>
			<path class="st8" d="M1885.5,365.4c7.7,0,7.7-12,0-12C1877.7,353.4,1877.7,365.4,1885.5,365.4L1885.5,365.4z"/>
		</g>
	</g>
	<g>
		<path class="st7" d="M1915.5,359.4"/>
		<g>
			<path class="st8" d="M1915.5,365.4c7.7,0,7.7-12,0-12C1907.7,353.4,1907.7,365.4,1915.5,365.4L1915.5,365.4z"/>
		</g>
	</g>
</g>
</svg>
